<svg width="14" height="16" viewBox="0 0 14 16" fill="none" xmlns="http://www.w3.org/2000/svg">
<path d="M13 3.07129C12.9999 2.5294 12.7745 2.0046 12.3662 1.61426C11.9572 1.22343 11.3981 1.00005 10.8105 1H3.18945C2.60192 1.00005 2.0428 1.22343 1.63379 1.61426C1.22551 2.0046 1.00005 2.5294 1 3.07129V14.9541C1 14.9606 1.00121 14.9631 1.00293 14.9658C1.00593 14.9704 1.01409 14.9793 1.0293 14.9873C1.06094 15.0039 1.09721 15.0039 1.12891 14.9854L6.24121 12.002H6.24316C6.47297 11.8688 6.7345 11.7988 7 11.7988C7.2655 11.7988 7.52703 11.8688 7.75684 12.002H7.75879L12.8711 14.9854L12.873 14.9873C12.8856 14.9947 12.902 14.9995 12.9199 15C12.9377 15.0004 12.9544 14.9962 12.9678 14.9893C12.9811 14.9823 12.9896 14.9731 12.9941 14.9658C12.9985 14.9589 12.9999 14.9529 13 14.9482V3.07129ZM14 14.96C13.9977 15.1507 13.9424 15.3364 13.8418 15.4971C13.7412 15.6574 13.5994 15.7868 13.4336 15.874C13.2678 15.9611 13.0819 16.0046 12.8955 16C12.7091 15.9954 12.5256 15.9431 12.3643 15.8477V15.8467L7.25586 12.8662V12.8672C7.18023 12.8234 7.09166 12.7988 7 12.7988C6.90834 12.7988 6.81977 12.8234 6.74414 12.8672L6.74316 12.8662L1.63281 15.8477L1.63379 15.8486C0.958393 16.2442 0 15.8155 0 14.9541V3.07129C5.41834e-05 2.24932 0.341944 1.46566 0.942383 0.891602C1.54204 0.318363 2.35071 5.11487e-05 3.18945 0H10.8105C11.6493 5.11487e-05 12.458 0.318363 13.0576 0.891602C13.6581 1.46566 13.9999 2.24932 14 3.07129V14.96Z" fill="black"/>
</svg>
